<svg width="128" height="72" viewBox="0 0 128 72" fill="none" xmlns="http://www.w3.org/2000/svg">
<path d="M64 8C64.9506 23.0527 76.9472 35.0495 92 36C76.9472 36.9506 64.9506 48.9472 64 64C63.0495 48.9472 51.0527 36.9506 36 36C51.0527 35.0495 63.0495 23.0527 64 8Z" fill="black"/>
<path d="M18 18C18.6111 27.6767 26.3232 35.3889 36 36C26.3232 36.6111 18.6111 44.3232 18 54C17.3889 44.3232 9.67673 36.6111 0 36C9.67673 35.3889 17.3889 27.6767 18 18Z" fill="black"/>
<path d="M110 18C110.611 27.6767 118.323 35.3889 128 36C118.323 36.6111 110.611 44.3232 110 54C109.389 44.3232 101.677 36.6111 92 36C101.677 35.3889 109.389 27.6767 110 18Z" fill="black"/>
</svg>
